<svg id="logosandtypes_com" xmlns="http://www.w3.org/2000/svg" viewBox="0 0 150 150"><path d="M0 0h150v150H0V0z" fill="none"/><path d="M12.2 59c.1-4.1.4-14.1.6-19.9.3-7.5 1.8-12 4.9-14.9 4.3-3.8 9.2-4.7 21.2-5.3 27.6-1.5 55.7-1.3 90.9 1.2 3.7.3 5 .9 5.8 1.4 1.6 1.1 1.7 2.3 2.2 8.5.2 3.6.7 13.1 1 18.4-12.1-.6-32.7-1.7-50.7-1.9s-34.1.1-36 .4c-3.9.5-5.7 2.3-6.2 3.1l93.3 17.3v13.6L12.2 59zM12.1 65.6l126.7 23.6c-.1 3.4-.4 14.4-.6 20.7-.3 7.5-1.8 12-4.9 14.9-4.3 3.8-9.2 4.7-21.2 5.3-27.6 1.5-55.7 1.3-90.9-1.2-3.7-.3-5-.9-5.8-1.4-1.6-1.1-1.7-2.3-2.2-8.5-.3-4.2-.9-16.6-1.1-20.6 16.4 1.1 41.5 1.9 61.9 1.9 5.1 0 18.5.2 22.1.2 2.8 0 6.5-.8 8.4-3.7L12.1 80.9V65.6z"/></svg>